<svg width="46" height="25" viewBox="0 0 46 25" fill="none" xmlns="http://www.w3.org/2000/svg">
<path d="M1.41311 5.8705V9.29102H0.260935V0.553698H3.48342C4.43957 0.553698 5.18768 0.797734 5.72776 1.28581C6.27184 1.77388 6.54388 2.41998 6.54388 3.2241C6.54388 4.07223 6.27784 4.72633 5.74576 5.1864C5.21768 5.64247 4.45957 5.8705 3.47142 5.8705H1.41311ZM1.41311 4.92836H3.48342C4.09951 4.92836 4.57159 4.78434 4.89964 4.49629C5.22768 4.20425 5.39171 3.78418 5.39171 3.2361C5.39171 2.71602 5.22768 2.29996 4.89964 1.98791C4.57159 1.67587 4.12152 1.51384 3.54943 1.50184H1.41311V4.92836ZM10.4505 9.41103C9.57034 9.41103 8.85423 9.12299 8.30215 8.5469C7.75007 7.96682 7.47402 7.1927 7.47402 6.22455V6.02052C7.47402 5.37643 7.59604 4.80234 7.84008 4.29826C8.08812 3.79019 8.43217 3.39413 8.87223 3.11008C9.3163 2.82204 9.79637 2.67802 10.3125 2.67802C11.1566 2.67802 11.8127 2.95606 12.2807 3.51214C12.7488 4.06823 12.9829 4.86435 12.9829 5.9005V6.36257H8.58419C8.60019 7.00267 8.78622 7.52075 9.14228 7.91681C9.50233 8.30887 9.9584 8.5049 10.5105 8.5049C10.9025 8.5049 11.2346 8.42488 11.5066 8.26486C11.7787 8.10484 12.0167 7.8928 12.2207 7.62876L12.8988 8.15684C12.3548 8.99297 11.5386 9.41103 10.4505 9.41103ZM10.3125 3.59016C9.86438 3.59016 9.48833 3.75418 9.18428 4.08223C8.88024 4.40628 8.69221 4.86235 8.6202 5.45044H11.8727V5.36642C11.8407 4.80234 11.6887 4.36627 11.4166 4.05823C11.1446 3.74618 10.7765 3.59016 10.3125 3.59016ZM15.7793 1.2258V2.79804H16.9915V3.65617H15.7793V7.68277C15.7793 7.94281 15.8333 8.13884 15.9413 8.27086C16.0493 8.39888 16.2333 8.46289 16.4934 8.46289C16.6214 8.46289 16.7974 8.43889 17.0215 8.39088V9.29102C16.7294 9.37103 16.4454 9.41103 16.1693 9.41103C15.6733 9.41103 15.2992 9.26101 15.0472 8.96097C14.7951 8.66092 14.6691 8.23486 14.6691 7.68277V3.65617H13.4869V2.79804H14.6691V1.2258H15.7793ZM21.0421 5.39643C20.0539 5.11239 19.3338 4.76433 18.8817 4.35227C18.4337 3.93621 18.2096 3.42413 18.2096 2.81604C18.2096 2.12794 18.4837 1.55985 19.0318 1.11178C19.5839 0.659714 20.3 0.433679 21.1801 0.433679C21.7802 0.433679 22.3143 0.549697 22.7823 0.781732C23.2544 1.01377 23.6185 1.33382 23.8745 1.74188C24.1345 2.14994 24.2646 2.59601 24.2646 3.08008H23.1064C23.1064 2.552 22.9384 2.13794 22.6023 1.83789C22.2663 1.53385 21.7922 1.38182 21.1801 1.38182C20.612 1.38182 20.1679 1.50784 19.8479 1.75988C19.5318 2.00792 19.3738 2.35397 19.3738 2.79804C19.3738 3.15409 19.5238 3.45614 19.8239 3.70417C20.1279 3.94821 20.642 4.17224 21.3661 4.37627C22.0942 4.5803 22.6623 4.80634 23.0704 5.05438C23.4824 5.29841 23.7865 5.58446 23.9825 5.91251C24.1825 6.24056 24.2826 6.62661 24.2826 7.07068C24.2826 7.77879 24.0065 8.34687 23.4544 8.77494C22.9024 9.199 22.1642 9.41103 21.2401 9.41103C20.64 9.41103 20.0799 9.29702 19.5598 9.06898C19.0398 8.83695 18.6377 8.5209 18.3537 8.12084C18.0736 7.72078 17.9336 7.26671 17.9336 6.75863H19.0918C19.0918 7.28671 19.2858 7.70478 19.6739 8.01282C20.0659 8.31687 20.588 8.46889 21.2401 8.46889C21.8482 8.46889 22.3143 8.34487 22.6383 8.09684C22.9624 7.8488 23.1244 7.51075 23.1244 7.08268C23.1244 6.65462 22.9744 6.32457 22.6743 6.09253C22.3743 5.8565 21.8302 5.62446 21.0421 5.39643ZM27.097 1.2258V2.79804H28.3092V3.65617H27.097V7.68277C27.097 7.94281 27.151 8.13884 27.259 8.27086C27.367 8.39888 27.5511 8.46289 27.8111 8.46289C27.9391 8.46289 28.1151 8.43889 28.3392 8.39088V9.29102C28.0471 9.37103 27.7631 9.41103 27.487 9.41103C26.991 9.41103 26.6169 9.26101 26.3649 8.96097C26.1128 8.66092 25.9868 8.23486 25.9868 7.68277V3.65617H24.8046V2.79804H25.9868V1.2258H27.097ZM29.1973 5.98452C29.1973 5.34842 29.3213 4.77633 29.5694 4.26826C29.8214 3.76018 30.1694 3.36812 30.6135 3.09208C31.0616 2.81604 31.5717 2.67802 32.1437 2.67802C33.0279 2.67802 33.742 2.98406 34.2861 3.59616C34.8342 4.20825 35.1082 5.02237 35.1082 6.03852V6.11654C35.1082 6.74863 34.9862 7.31672 34.7421 7.82079C34.5021 8.32087 34.156 8.71093 33.704 8.99097C33.2559 9.27101 32.7398 9.41103 32.1557 9.41103C31.2756 9.41103 30.5615 9.10499 30.0134 8.4929C29.4693 7.8808 29.1973 7.07068 29.1973 6.06253V5.98452ZM30.3135 6.11654C30.3135 6.83665 30.4795 7.41473 30.8115 7.8508C31.1476 8.28686 31.5957 8.5049 32.1557 8.5049C32.7198 8.5049 33.1679 8.28486 33.4999 7.8448C33.832 7.40073 33.998 6.78064 33.998 5.98452C33.998 5.27241 33.828 4.69632 33.4879 4.25626C33.1519 3.81219 32.7038 3.59016 32.1437 3.59016C31.5957 3.59016 31.1536 3.80819 30.8175 4.24425C30.4815 4.68032 30.3135 5.30441 30.3135 6.11654ZM39.6389 3.79419C39.4709 3.76618 39.2888 3.75218 39.0928 3.75218C38.3647 3.75218 37.8706 4.06223 37.6106 4.68232V9.29102H36.5004V2.79804H37.5806L37.5986 3.54815C37.9626 2.96806 38.4787 2.67802 39.1468 2.67802C39.3628 2.67802 39.5269 2.70602 39.6389 2.76203V3.79419ZM42.8974 7.66477L44.4096 2.79804H45.5978L42.9874 10.2932C42.5833 11.3733 41.9412 11.9134 41.0611 11.9134L40.8511 11.8954L40.437 11.8174V10.9173L40.737 10.9413C41.1131 10.9413 41.4051 10.8653 41.6132 10.7132C41.8252 10.5612 41.9992 10.2832 42.1353 9.8791L42.3813 9.219L40.0649 2.79804H41.2771L42.8974 7.66477ZM6.51388 20.9845C6.51388 20.3484 6.6379 19.7763 6.88593 19.2683C7.13797 18.7602 7.48603 18.3681 7.93009 18.0921C8.37816 17.816 8.88824 17.678 9.46032 17.678C10.3445 17.678 11.0586 17.9841 11.6026 18.5962C12.1507 19.2082 12.4248 20.0224 12.4248 21.0385V21.1165C12.4248 21.7486 12.3028 22.3167 12.0587 22.8208C11.8187 23.3209 11.4726 23.7109 11.0206 23.991C10.5725 24.271 10.0564 24.411 9.47233 24.411C8.59219 24.411 7.87808 24.105 7.33 23.4929C6.78592 22.8808 6.51388 22.0707 6.51388 21.0625V20.9845ZM7.63005 21.1165C7.63005 21.8366 7.79607 22.4147 8.12812 22.8508C8.46417 23.2869 8.91224 23.5049 9.47233 23.5049C10.0364 23.5049 10.4845 23.2849 10.8165 22.8448C11.1486 22.4007 11.3146 21.7806 11.3146 20.9845C11.3146 20.2724 11.1446 19.6963 10.8045 19.2563C10.4685 18.8122 10.0204 18.5902 9.46032 18.5902C8.91224 18.5902 8.47017 18.8082 8.13412 19.2443C7.79807 19.6803 7.63005 20.3044 7.63005 21.1165ZM14.8671 17.798L14.9031 18.6142C15.3992 17.9901 16.0473 17.678 16.8474 17.678C18.2196 17.678 18.9117 18.4521 18.9238 20.0004V24.291H17.8136V19.9944C17.8096 19.5263 17.7016 19.1802 17.4895 18.9562C17.2815 18.7322 16.9555 18.6202 16.5114 18.6202C16.1513 18.6202 15.8353 18.7162 15.5632 18.9082C15.2912 19.1002 15.0792 19.3523 14.9271 19.6643V24.291H13.817V17.798H14.8671ZM21.8042 24.291H20.694V15.0736H21.8042V24.291ZM24.7926 24.291H23.6825V17.798H24.7926V24.291ZM23.5925 16.0758C23.5925 15.8957 23.6465 15.7437 23.7545 15.6197C23.8665 15.4957 24.0305 15.4337 24.2466 15.4337C24.4626 15.4337 24.6266 15.4957 24.7386 15.6197C24.8506 15.7437 24.9067 15.8957 24.9067 16.0758C24.9067 16.2558 24.8506 16.4058 24.7386 16.5258C24.6266 16.6459 24.4626 16.7059 24.2466 16.7059C24.0305 16.7059 23.8665 16.6459 23.7545 16.5258C23.6465 16.4058 23.5925 16.2558 23.5925 16.0758ZM27.6251 17.798L27.6611 18.6142C28.1571 17.9901 28.8052 17.678 29.6054 17.678C30.9776 17.678 31.6697 18.4521 31.6817 20.0004V24.291H30.5715V19.9944C30.5675 19.5263 30.4595 19.1802 30.2475 18.9562C30.0394 18.7322 29.7134 18.6202 29.2693 18.6202C28.9093 18.6202 28.5932 18.7162 28.3212 18.9082C28.0491 19.1002 27.8371 19.3523 27.6851 19.6643V24.291H26.5749V17.798H27.6251ZM36.0503 24.411C35.1702 24.411 34.4541 24.123 33.902 23.5469C33.3499 22.9668 33.0739 22.1927 33.0739 21.2246V21.0205C33.0739 20.3764 33.1959 19.8023 33.4399 19.2983C33.688 18.7902 34.032 18.3941 34.4721 18.1101C34.9162 17.822 35.3962 17.678 35.9123 17.678C36.7564 17.678 37.4125 17.9561 37.8806 18.5121C38.3487 19.0682 38.5827 19.8643 38.5827 20.9005V21.3626H34.1841C34.2001 22.0027 34.3861 22.5207 34.7421 22.9168C35.1022 23.3089 35.5583 23.5049 36.1103 23.5049C36.5024 23.5049 36.8345 23.4249 37.1065 23.2649C37.3785 23.1048 37.6166 22.8928 37.8206 22.6288L38.4987 23.1568C37.9546 23.993 37.1385 24.411 36.0503 24.411ZM35.9123 18.5902C35.4642 18.5902 35.0882 18.7542 34.7841 19.0822C34.4801 19.4063 34.2921 19.8623 34.2201 20.4504H37.4725V20.3664C37.4405 19.8023 37.2885 19.3663 37.0165 19.0582C36.7444 18.7462 36.3764 18.5902 35.9123 18.5902Z" fill="white"/>
<path d="M1.41311 5.8705V5.10238H0.644993V5.8705H1.41311ZM1.41311 9.29102V10.0591H2.18123V9.29102H1.41311ZM0.260935 9.29102H-0.507181V10.0591H0.260935V9.29102ZM0.260935 0.553698V-0.214418H-0.507181V0.553698H0.260935ZM5.72776 1.28581L5.21275 1.8557L5.21485 1.85758L5.72776 1.28581ZM5.74576 5.1864L6.24782 5.76772L6.24816 5.76743L5.74576 5.1864ZM1.41311 4.92836H0.644993V5.69647H1.41311V4.92836ZM4.89964 4.49629L5.40645 5.0735L5.41038 5.07L4.89964 4.49629ZM3.54943 1.50184L3.56554 0.733894L3.55749 0.733725H3.54943V1.50184ZM1.41311 1.50184V0.733725H0.644993V1.50184H1.41311ZM0.644993 5.8705V9.29102H2.18123V5.8705H0.644993ZM1.41311 8.5229H0.260935V10.0591H1.41311V8.5229ZM1.02905 9.29102V0.553698H-0.507181V9.29102H1.02905ZM0.260935 1.32181H3.48342V-0.214418H0.260935V1.32181ZM3.48342 1.32181C4.3103 1.32181 4.85339 1.53094 5.21275 1.85569L6.24277 0.715923C5.52196 0.0645289 4.56883 -0.214418 3.48342 -0.214418V1.32181ZM5.21485 1.85758C5.57917 2.1844 5.77577 2.61373 5.77577 3.2241H7.312C7.312 2.22623 6.96451 1.36336 6.24067 0.714036L5.21485 1.85758ZM5.77577 3.2241C5.77577 3.89939 5.57209 4.32113 5.24337 4.60536L6.24816 5.76743C6.9836 5.13153 7.312 4.24507 7.312 3.2241H5.77577ZM5.24371 4.60507C4.90348 4.8989 4.35112 5.10238 3.47142 5.10238V6.63862C4.56802 6.63862 5.53188 6.38603 6.24782 5.76772L5.24371 4.60507ZM3.47142 5.10238H1.41311V6.63862H3.47142V5.10238ZM1.41311 5.69647H3.48342V4.16024H1.41311V5.69647ZM3.48342 5.69647C4.20988 5.69647 4.89 5.52695 5.40644 5.07349L4.39283 3.9191C4.25317 4.04173 3.98915 4.16024 3.48342 4.16024V5.69647ZM5.41038 5.07C5.94129 4.59736 6.15983 3.94487 6.15983 3.2361H4.62359C4.62359 3.6235 4.51408 3.81114 4.38889 3.92258L5.41038 5.07ZM6.15983 3.2361C6.15983 2.53985 5.93264 1.91041 5.42903 1.43137L4.37024 2.54446C4.52273 2.68951 4.62359 2.8922 4.62359 3.2361H6.15983ZM5.42903 1.43137C4.92841 0.955166 4.27666 0.748812 3.56554 0.733894L3.53332 2.26979C3.96637 2.27887 4.21476 2.39657 4.37024 2.54446L5.42903 1.43137ZM3.54943 0.733725H1.41311V2.26996H3.54943V0.733725ZM0.644993 1.50184V4.92836H2.18123V1.50184H0.644993ZM8.30215 8.5469L7.74574 9.07645L7.74758 9.07837L8.30215 8.5469ZM7.84008 4.29826L7.14982 3.96129L7.14872 3.96356L7.84008 4.29826ZM8.87223 3.11008L9.28878 3.75544L9.29024 3.7545L8.87223 3.11008ZM12.2807 3.51214L11.6931 4.00678L12.2807 3.51214ZM12.9829 6.36257V7.13069H13.751V6.36257H12.9829ZM8.58419 6.36257V5.59446H7.79663L7.81631 6.38177L8.58419 6.36257ZM9.14227 7.91681L8.57102 8.43036L8.57654 8.43637L9.14227 7.91681ZM12.2207 7.62877L12.6927 7.02274L12.0844 6.54901L11.6129 7.1591L12.2207 7.62877ZM12.8988 8.15684L13.5427 8.57578L13.9275 7.98436L13.3708 7.55082L12.8988 8.15684ZM9.18428 4.08223L9.74445 4.60782L9.74764 4.60437L9.18428 4.08223ZM8.6202 5.45044L7.85777 5.35708L7.75229 6.21855H8.6202V5.45044ZM11.8727 5.45044V6.21855H12.6408V5.45044H11.8727ZM11.8727 5.36642H12.6408V5.34465L12.6396 5.32291L11.8727 5.36642ZM11.4166 4.05823L10.8376 4.56299L10.8409 4.56668L11.4166 4.05823ZM10.4505 8.64292C9.75588 8.64292 9.24822 8.42396 8.85672 8.01544L7.74758 9.07837C8.46025 9.82202 9.3848 10.1791 10.4505 10.1791V8.64292ZM8.85855 8.01736C8.46976 7.60884 8.24214 7.03921 8.24214 6.22455H6.70591C6.70591 7.34619 7.03037 8.32479 7.74574 9.07645L8.85855 8.01736ZM8.24214 6.22455V6.02052H6.70591V6.22455H8.24214ZM8.24214 6.02052C8.24214 5.47495 8.34499 5.01809 8.53144 4.63297L7.14872 3.96356C6.8471 4.58659 6.70591 5.2779 6.70591 6.02052H8.24214ZM8.53033 4.63524C8.72201 4.24261 8.97568 3.95754 9.28878 3.75544L8.45568 2.46472C7.88866 2.83072 7.45423 3.33776 7.14983 3.96129L8.53033 4.63524ZM9.29024 3.7545C9.61322 3.545 9.9487 3.44613 10.3125 3.44613V1.9099C9.64404 1.9099 9.01939 2.09908 8.45423 2.46566L9.29024 3.7545ZM10.3125 3.44613C10.9706 3.44613 11.3953 3.65297 11.6931 4.00678L12.8684 3.0175C12.2301 2.25915 11.3425 1.9099 10.3125 1.9099V3.44613ZM11.6931 4.00678C12.0037 4.37579 12.2147 4.9696 12.2147 5.9005H13.751C13.751 4.7591 13.4939 3.76066 12.8684 3.0175L11.6931 4.00678ZM12.2147 5.9005V6.36257H13.751V5.9005H12.2147ZM12.9829 5.59446H8.58419V7.13069H12.9829V5.59446ZM7.81631 6.38177C7.83592 7.16613 8.06906 7.87194 8.57105 8.43033L9.7135 7.40329C9.50338 7.16956 9.36446 6.83921 9.35207 6.34338L7.81631 6.38177ZM8.57654 8.43637C9.08807 8.99337 9.75238 9.27301 10.5105 9.27301V7.73678C10.1644 7.73678 9.91659 7.62437 9.70802 7.39725L8.57654 8.43637ZM10.5105 9.27301C11.0066 9.27301 11.4806 9.17136 11.8961 8.92693L11.1172 7.6028C10.9886 7.67841 10.7985 7.73678 10.5105 7.73678V9.27301ZM11.8961 8.92693C12.2573 8.71447 12.5681 8.43544 12.8285 8.09843L11.6129 7.1591C11.4653 7.35017 11.3001 7.4952 11.1172 7.6028L11.8961 8.92693ZM11.7488 8.23479L12.4269 8.76287L13.3708 7.55082L12.6927 7.02274L11.7488 8.23479ZM12.255 7.73791C11.8673 8.33373 11.3068 8.64292 10.4505 8.64292V10.1791C11.7705 10.1791 12.8422 9.65221 13.5427 8.57578L12.255 7.73791ZM10.3125 2.82204C9.65097 2.82204 9.07062 3.07489 8.62092 3.56009L9.74764 4.60437C9.90604 4.43347 10.0778 4.35827 10.3125 4.35827V2.82204ZM8.62413 3.55665C8.17655 4.03368 7.94307 4.66053 7.85777 5.35708L9.38262 5.54379C9.44135 5.06416 9.58392 4.77888 9.74444 4.60781L8.62413 3.55665ZM8.6202 6.21855H11.8727V4.68232H8.6202V6.21855ZM12.6408 5.45044V5.36642H11.1046V5.45044H12.6408ZM12.6396 5.32291C12.6014 4.6505 12.4145 4.02781 11.9924 3.54978L10.8409 4.56668C10.9628 4.70473 11.0799 4.95418 11.1058 5.40993L12.6396 5.32291ZM11.9956 3.55347C11.5591 3.05273 10.9685 2.82204 10.3125 2.82204V4.35827C10.5846 4.35827 10.7301 4.43963 10.8376 4.56298L11.9956 3.55347ZM15.7793 1.2258H16.5474V0.457683H15.7793V1.2258ZM15.7793 2.79804H15.0112V3.56615H15.7793V2.79804ZM16.9915 2.79804H17.7596V2.02992H16.9915V2.79804ZM16.9915 3.65617V4.42428H17.7596V3.65617H16.9915ZM15.7793 3.65617V2.88805H15.0112V3.65617H15.7793ZM15.9413 8.27086L15.3467 8.75732L15.3542 8.7662L15.9413 8.27086ZM17.0215 8.39088H17.7896V7.44073L16.8605 7.63981L17.0215 8.39088ZM17.0215 9.29102L17.2244 10.0318L17.7896 9.877V9.29102H17.0215ZM14.6691 3.65617H15.4372V2.88805H14.6691V3.65617ZM13.4869 3.65617H12.7188V4.42428H13.4869V3.65617ZM13.4869 2.79804V2.02992H12.7188V2.79804H13.4869ZM14.6691 2.79804V3.56615H15.4372V2.79804H14.6691ZM14.6691 1.2258V0.457683H13.901V1.2258H14.6691ZM15.0112 1.2258V2.79804H16.5474V1.2258H15.0112ZM15.7793 3.56615H16.9915V2.02992H15.7793V3.56615ZM16.2233 2.79804V3.65617H17.7596V2.79804H16.2233ZM16.9915 2.88805H15.7793V4.42428H16.9915V2.88805ZM15.0112 3.65617V7.68277H16.5474V3.65617H15.0112ZM15.0112 7.68277C15.0112 8.03136 15.0809 8.43222 15.3468 8.75726L16.5358 7.78446C16.5614 7.81572 16.5642 7.83505 16.5603 7.8208C16.5559 7.80473 16.5474 7.762 16.5474 7.68277H15.0112ZM15.3542 8.7662C15.6732 9.14424 16.1322 9.23101 16.4934 9.23101V7.69477C16.4594 7.69477 16.4362 7.69265 16.4222 7.69063C16.4081 7.68861 16.406 7.68707 16.4127 7.6894C16.4197 7.69185 16.4365 7.69858 16.4586 7.71307C16.4812 7.72792 16.5057 7.74861 16.5284 7.77553L15.3542 8.7662ZM16.4934 9.23101C16.702 9.23101 16.9399 9.1939 17.1824 9.14195L16.8605 7.63981C16.6549 7.68387 16.5408 7.69477 16.4934 7.69477V9.23101ZM16.2533 8.39088V9.29102H17.7896V8.39088H16.2533ZM16.8185 8.5502C16.5862 8.61383 16.3705 8.64292 16.1693 8.64292V10.1791C16.5202 10.1791 16.8726 10.1282 17.2244 10.0318L16.8185 8.5502ZM16.1693 8.64292C15.8348 8.64292 15.704 8.54874 15.6353 8.46692L14.459 9.45501C14.8944 9.97328 15.5117 10.1791 16.1693 10.1791V8.64292ZM15.6353 8.46692C15.5391 8.3524 15.4372 8.1271 15.4372 7.68277H13.901C13.901 8.34261 14.0511 8.96944 14.459 9.45501L15.6353 8.46692ZM15.4372 7.68277V3.65617H13.901V7.68277H15.4372ZM14.6691 2.88805H13.4869V4.42428H14.6691V2.88805ZM14.255 3.65617V2.79804H12.7188V3.65617H14.255ZM13.4869 3.56615H14.6691V2.02992H13.4869V3.56615ZM15.4372 2.79804V1.2258H13.901V2.79804H15.4372ZM14.6691 1.99391H15.7793V0.457683H14.6691V1.99391ZM21.0421 5.39643L21.2556 4.65858L21.2543 4.65821L21.0421 5.39643ZM18.8817 4.35227L18.3591 4.91516L18.3643 4.91995L18.8817 4.35227ZM19.0318 1.11178L19.5179 1.70646L19.5184 1.70608L19.0318 1.11178ZM22.7823 0.781732L22.4412 1.46993L22.4435 1.47108L22.7823 0.781732ZM23.8745 1.74188L23.2238 2.15013L23.2267 2.15467L23.8745 1.74188ZM24.2646 3.08008V3.84819H25.0327V3.08008H24.2646ZM23.1064 3.08008H22.3383V3.84819H23.1064V3.08008ZM22.6023 1.83789L22.087 2.40749L22.0907 2.41086L22.6023 1.83789ZM19.8479 1.75988L20.3221 2.36413L20.3231 2.36334L19.8479 1.75988ZM19.8239 3.70417L19.3344 4.29625L19.3431 4.3032L19.8239 3.70417ZM21.3661 4.37627L21.1578 5.1156L21.1589 5.1159L21.3661 4.37627ZM23.0704 5.05438L22.6714 5.71079L22.679 5.71528L23.0704 5.05438ZM23.9825 5.91251L23.3231 6.30653L23.3267 6.31239L23.9825 5.91251ZM23.4544 8.77494L23.9223 9.3841L23.9251 9.38196L23.4544 8.77494ZM19.5598 9.06898L19.2469 9.77046L19.2514 9.77245L19.5598 9.06898ZM18.3537 8.12084L17.7244 8.56133L17.7274 8.56552L18.3537 8.12084ZM17.9336 6.75863V5.99052H17.1655V6.75863H17.9336ZM19.0918 6.75863H19.8599V5.99052H19.0918V6.75863ZM19.6739 8.01282L19.1963 8.61447L19.2031 8.6198L19.6739 8.01282ZM22.6743 6.09253L22.1994 6.69626L22.2044 6.70015L22.6743 6.09253ZM21.2543 4.65821C20.3121 4.38739 19.7238 4.08044 19.3992 3.78459L18.3643 4.91995C18.9439 5.44823 19.7957 5.83738 20.8299 6.13465L21.2543 4.65821ZM19.4044 3.7894C19.1119 3.51776 18.9778 3.2092 18.9778 2.81604H17.4415C17.4415 3.63906 17.7555 4.35466 18.3591 4.91514L19.4044 3.7894ZM18.9778 2.81604C18.9778 2.366 19.1423 2.01351 19.5179 1.70646L18.5456 0.517099C17.825 1.10619 17.4415 1.88987 17.4415 2.81604H18.9778ZM19.5184 1.70608C19.9035 1.39077 20.4347 1.2018 21.1801 1.2018V-0.334436C20.1652 -0.334436 19.2642 -0.0713475 18.5451 0.517485L19.5184 1.70608ZM21.1801 1.2018C21.6795 1.2018 22.0939 1.29777 22.4412 1.46993L23.1235 0.0935359C22.5346 -0.198377 21.8809 -0.334436 21.1801 -0.334436V1.2018ZM22.4435 1.47108C22.7997 1.64618 23.0505 1.87391 23.2239 2.15012L24.5251 1.33363C24.1864 0.793724 23.7091 0.381359 23.1212 0.0923874L22.4435 1.47108ZM23.2267 2.15467C23.4081 2.43934 23.4964 2.74219 23.4964 3.08008H25.0327C25.0327 2.44982 24.8609 1.86053 24.5223 1.32908L23.2267 2.15467ZM24.2646 2.31196H23.1064V3.84819H24.2646V2.31196ZM23.8745 3.08008C23.8745 2.37457 23.6417 1.73616 23.1139 1.26492L22.0907 2.41086C22.235 2.53971 22.3383 2.72943 22.3383 3.08008H23.8745ZM23.1176 1.26831C22.5972 0.797385 21.915 0.613707 21.1801 0.613707V2.14994C21.6694 2.14994 21.9354 2.27031 22.087 2.40748L23.1176 1.26831ZM21.1801 0.613707C20.5065 0.613707 19.8727 0.762649 19.3727 1.15642L20.3231 2.36334C20.4632 2.25303 20.7175 2.14994 21.1801 2.14994V0.613707ZM19.3737 1.15563C18.8508 1.56595 18.6057 2.14651 18.6057 2.79804H20.1419C20.1419 2.56143 20.2128 2.44988 20.3221 2.36413L19.3737 1.15563ZM18.6057 2.79804C18.6057 3.40634 18.8766 3.91771 19.3345 4.29619L20.3133 3.11215C20.171 2.99456 20.1419 2.90184 20.1419 2.79804H18.6057ZM19.3431 4.3032C19.7718 4.64733 20.4095 4.90475 21.1578 5.1156L21.5744 3.63695C20.8745 3.43973 20.484 3.24909 20.3047 3.10514L19.3431 4.3032ZM21.1589 5.1159C21.8539 5.31067 22.3475 5.51383 22.6714 5.71075L23.4693 4.398C22.9772 4.09884 22.3345 3.84994 21.5734 3.63665L21.1589 5.1159ZM22.679 5.71528C23.0083 5.9103 23.2074 6.1128 23.3232 6.30651L24.6419 5.5185C24.3656 5.05612 23.9566 4.68653 23.4618 4.39347L22.679 5.71528ZM23.3267 6.31239C23.4425 6.50223 23.5144 6.74533 23.5144 7.07068H25.0507C25.0507 6.50789 24.9226 5.97888 24.6383 5.51262L23.3267 6.31239ZM23.5144 7.07068C23.5144 7.54514 23.3452 7.88765 22.9838 8.16791L23.9251 9.38196C24.6678 8.8061 25.0507 8.01244 25.0507 7.07068H23.5144ZM22.9865 8.16578C22.6067 8.45752 22.0503 8.64292 21.2401 8.64292V10.1791C22.2782 10.1791 23.198 9.94049 23.9223 9.38409L22.9865 8.16578ZM21.2401 8.64292C20.7401 8.64292 20.2857 8.54852 19.8683 8.36552L19.2514 9.77245C19.8742 10.0455 20.54 10.1791 21.2401 10.1791V8.64292ZM19.8728 8.36751C19.4578 8.18237 19.1724 7.94718 18.98 7.67616L17.7274 8.56552C18.103 9.09462 18.6217 9.49152 19.2469 9.77045L19.8728 8.36751ZM18.9829 7.68035C18.7971 7.41484 18.7017 7.11589 18.7017 6.75863H17.1655C17.1655 7.41753 17.3502 8.02672 17.7244 8.56133L18.9829 7.68035ZM17.9336 7.52675H19.0918V5.99052H17.9336V7.52675ZM18.3237 6.75863C18.3237 7.50329 18.6112 8.14997 19.1963 8.61443L20.1514 7.41121C19.9604 7.25959 19.8599 7.07013 19.8599 6.75863H18.3237ZM19.2031 8.6198C19.7669 9.05702 20.4713 9.23701 21.2401 9.23701V7.70078C20.7048 7.70078 20.3649 7.57672 20.1446 7.40584L19.2031 8.6198ZM21.2401 9.23701C21.9379 9.23701 22.5956 9.09683 23.1052 8.70678L22.1714 7.48689C22.0329 7.59291 21.7584 7.70078 21.2401 7.70078V9.23701ZM23.1052 8.70678C23.6297 8.30531 23.8925 7.73623 23.8925 7.08268H22.3563C22.3563 7.28527 22.295 7.39229 22.1714 7.48689L23.1052 8.70678ZM23.8925 7.08268C23.8925 6.45166 23.6583 5.88247 23.1442 5.48491L22.2044 6.70015C22.2904 6.76667 22.3563 6.85757 22.3563 7.08268H23.8925ZM23.1492 5.48883C22.7239 5.15425 22.0546 4.88977 21.2556 4.65858L20.8286 6.13428C21.6058 6.35915 22.0246 6.55874 22.1994 6.69624L23.1492 5.48883ZM27.097 1.2258H27.8651V0.457683H27.097V1.2258ZM27.097 2.79804H26.3289V3.56615H27.097V2.79804ZM28.3092 2.79804H29.0773V2.02992H28.3092V2.79804ZM28.3092 3.65617V4.42428H29.0773V3.65617H28.3092ZM27.097 3.65617V2.88805H26.3289V3.65617H27.097ZM27.259 8.27086L26.6645 8.75732L26.6719 8.7662L27.259 8.27086ZM28.3392 8.39088H29.1073V7.44073L28.1782 7.63981L28.3392 8.39088ZM28.3392 9.29102L28.5421 10.0318L29.1073 9.877V9.29102H28.3392ZM25.9868 3.65617H26.7549V2.88805H25.9868V3.65617ZM24.8046 3.65617H24.0365V4.42428H24.8046V3.65617ZM24.8046 2.79804V2.02992H24.0365V2.79804H24.8046ZM25.9868 2.79804V3.56615H26.7549V2.79804H25.9868ZM25.9868 1.2258V0.457683H25.2187V1.2258H25.9868ZM26.3289 1.2258V2.79804H27.8651V1.2258H26.3289ZM27.097 3.56615H28.3092V2.02992H27.097V3.56615ZM27.541 2.79804V3.65617H29.0773V2.79804H27.541ZM28.3092 2.88805H27.097V4.42428H28.3092V2.88805ZM26.3289 3.65617V7.68277H27.8651V3.65617H26.3289ZM26.3289 7.68277C26.3289 8.03136 26.3986 8.43222 26.6645 8.75726L27.8535 7.78446C27.8791 7.81572 27.8819 7.83505 27.878 7.8208C27.8736 7.80473 27.8651 7.762 27.8651 7.68277H26.3289ZM26.6719 8.7662C26.9909 9.14424 27.4499 9.23101 27.8111 9.23101V7.69477C27.7771 7.69477 27.7539 7.69265 27.7399 7.69063C27.7259 7.68861 27.7237 7.68707 27.7304 7.6894C27.7374 7.69185 27.7542 7.69858 27.7763 7.71307C27.7989 7.72792 27.8234 7.74861 27.8461 7.77553L26.6719 8.7662ZM27.8111 9.23101C28.0197 9.23101 28.2576 9.1939 28.5001 9.14195L28.1782 7.63981C27.9726 7.68387 27.8585 7.69477 27.8111 7.69477V9.23101ZM27.5711 8.39088V9.29102H29.1073V8.39088H27.5711ZM28.1362 8.5502C27.904 8.61383 27.6882 8.64292 27.487 8.64292V10.1791C27.8379 10.1791 28.1903 10.1282 28.5421 10.0318L28.1362 8.5502ZM27.487 8.64292C27.1525 8.64292 27.0218 8.54874 26.953 8.46692L25.7767 9.45501C26.2121 9.97328 26.8294 10.1791 27.487 10.1791V8.64292ZM26.953 8.46692C26.8568 8.3524 26.7549 8.1271 26.7549 7.68277H25.2187C25.2187 8.34261 25.3688 8.96944 25.7767 9.45501L26.953 8.46692ZM26.7549 7.68277V3.65617H25.2187V7.68277H26.7549ZM25.9868 2.88805H24.8046V4.42428H25.9868V2.88805ZM25.5728 3.65617V2.79804H24.0365V3.65617H25.5728ZM24.8046 3.56615H25.9868V2.02992H24.8046V3.56615ZM26.7549 2.79804V1.2258H25.2187V2.79804H26.7549ZM25.9868 1.99391H27.097V0.457683H25.9868V1.99391ZM29.5694 4.26826L28.8812 3.92691L28.8791 3.93128L29.5694 4.26826ZM30.6135 3.09208L30.2106 2.4381L30.208 2.43973L30.6135 3.09208ZM34.2861 3.59616L33.712 4.10647L33.7138 4.10855L34.2861 3.59616ZM34.7421 7.82079L34.0508 7.48609L34.0497 7.48841L34.7421 7.82079ZM33.704 8.99097L33.2995 8.33799L33.2969 8.33961L33.704 8.99097ZM30.0134 8.4929L29.4393 9.00321L29.4412 9.00529L30.0134 8.4929ZM30.8115 7.8508L30.2004 8.31615L30.2031 8.31967L30.8115 7.8508ZM33.5 7.8448L34.1131 8.30745L34.1151 8.30478L33.5 7.8448ZM33.4879 4.25626L32.8754 4.71979L32.8801 4.72592L33.4879 4.25626ZM29.9654 5.98452C29.9654 5.45049 30.0689 4.9959 30.2596 4.60523L28.8791 3.93128C28.5737 4.55677 28.4292 5.24635 28.4292 5.98452H29.9654ZM30.2575 4.6096C30.4516 4.2182 30.7065 3.93872 31.019 3.74443L30.208 2.43973C29.6324 2.79752 29.1912 3.30216 28.8813 3.92692L30.2575 4.6096ZM31.0164 3.74605C31.3329 3.5511 31.7011 3.44613 32.1437 3.44613V1.9099C31.4422 1.9099 30.7903 2.08098 30.2106 2.43811L31.0164 3.74605ZM32.1437 3.44613C32.8281 3.44613 33.3262 3.6725 33.712 4.10646L34.8602 3.08585C34.1577 2.29563 33.2276 1.9099 32.1437 1.9099V3.44613ZM33.7138 4.10855C34.1078 4.5485 34.3401 5.16478 34.3401 6.03852H35.8763C35.8763 4.87996 35.5605 3.868 34.8583 3.08376L33.7138 4.10855ZM34.3401 6.03852V6.11654H35.8763V6.03852H34.3401ZM34.3401 6.11654C34.3401 6.6477 34.2381 7.09907 34.0508 7.48609L35.4335 8.1555C35.7342 7.53436 35.8763 6.84956 35.8763 6.11654H34.3401ZM34.0497 7.48841C33.8702 7.86232 33.6214 8.13857 33.2995 8.33799L34.1085 9.64395C34.6907 9.28328 35.134 8.77942 35.4346 8.15318L34.0497 7.48841ZM33.2969 8.33961C32.9835 8.53545 32.6116 8.64292 32.1557 8.64292V10.1791C32.8681 10.1791 33.5283 10.0066 34.1111 9.64233L33.2969 8.33961ZM32.1557 8.64292C31.4765 8.64292 30.9767 8.41725 30.5857 7.9805L29.4412 9.00529C30.1463 9.79273 31.0747 10.1791 32.1557 10.1791V8.64292ZM30.5875 7.98259C30.1956 7.54165 29.9654 6.92789 29.9654 6.06253H28.4292C28.4292 7.21347 28.7431 8.21996 29.4393 9.0032L30.5875 7.98259ZM29.9654 6.06253V5.98452H28.4292V6.06253H29.9654ZM29.5454 6.11654C29.5454 6.952 29.7386 7.70967 30.2004 8.31614L31.4227 7.38546C31.2204 7.11979 31.0816 6.72129 31.0816 6.11654H29.5454ZM30.2031 8.31967C30.6875 8.94824 31.3623 9.27301 32.1557 9.27301V7.73678C31.829 7.73678 31.6076 7.62548 31.42 7.38193L30.2031 8.31967ZM32.1557 9.27301C32.9542 9.27301 33.632 8.94508 34.1131 8.30745L32.8868 7.38215C32.7038 7.62465 32.4854 7.73678 32.1557 7.73678V9.27301ZM34.1151 8.30478C34.5814 7.68117 34.7661 6.87663 34.7661 5.98452H33.2299C33.2299 6.68464 33.0826 7.12029 32.8848 7.38482L34.1151 8.30478ZM34.7661 5.98452C34.7661 5.15061 34.5658 4.39487 34.0957 3.78659L32.8801 4.72592C33.0902 4.99778 33.2299 5.39421 33.2299 5.98452H34.7661ZM34.1004 3.79274C33.6182 3.15552 32.9428 2.82204 32.1437 2.82204V4.35827C32.4649 4.35827 32.6856 4.46886 32.8754 4.71977L34.1004 3.79274ZM32.1437 2.82204C31.3562 2.82204 30.6898 3.15161 30.2091 3.77539L31.426 4.71312C31.6173 4.46477 31.8351 4.35827 32.1437 4.35827V2.82204ZM30.2091 3.77539C29.7306 4.39637 29.5454 5.21214 29.5454 6.11654H31.0816C31.0816 5.39669 31.2324 4.96427 31.426 4.71312L30.2091 3.77539ZM39.6389 3.79419L39.5126 4.55185L40.407 4.70092V3.79419H39.6389ZM37.6106 4.68232L36.9022 4.38527L36.8425 4.52778V4.68232H37.6106ZM37.6106 9.29102V10.0591H38.3787V9.29102H37.6106ZM36.5004 9.29102H35.7323V10.0591H36.5004V9.29102ZM36.5004 2.79804V2.02992H35.7323V2.79804H36.5004ZM37.5806 2.79804L38.3485 2.77961L38.3305 2.02992H37.5806V2.79804ZM37.5986 3.54815L36.8307 3.56658L36.8919 6.11909L38.2492 3.95646L37.5986 3.54815ZM39.6389 2.76203H40.407V2.28731L39.9824 2.07501L39.6389 2.76203ZM39.7652 3.03652C39.5497 3.00062 39.325 2.98406 39.0928 2.98406V4.5203C39.2527 4.5203 39.392 4.53175 39.5126 4.55185L39.7652 3.03652ZM39.0928 2.98406C38.62 2.98406 38.1643 3.0853 37.7679 3.3341C37.3671 3.58562 37.0838 3.95231 36.9022 4.38527L38.3189 4.97937C38.3974 4.79224 38.4912 4.69386 38.5844 4.63533C38.682 4.57408 38.8375 4.5203 39.0928 4.5203V2.98406ZM36.8425 4.68232V9.29102H38.3787V4.68232H36.8425ZM37.6106 8.5229H36.5004V10.0591H37.6106V8.5229ZM37.2685 9.29102V2.79804H35.7323V9.29102H37.2685ZM36.5004 3.56615H37.5806V2.02992H36.5004V3.56615ZM36.8127 2.81647L36.8307 3.56658L38.3665 3.52972L38.3485 2.77961L36.8127 2.81647ZM38.2492 3.95646C38.477 3.59343 38.751 3.44613 39.1468 3.44613V1.9099C38.2064 1.9099 37.4482 2.34269 36.948 3.13984L38.2492 3.95646ZM39.1468 3.44613C39.2235 3.44613 39.2737 3.45125 39.3026 3.45618C39.333 3.46137 39.325 3.46385 39.2954 3.44905L39.9824 2.07501C39.7126 1.94009 39.4074 1.9099 39.1468 1.9099V3.44613ZM38.8708 2.76203V3.79419H40.407V2.76203H38.8708ZM42.8974 7.66477L42.1686 7.9074L42.9226 10.1722L43.6309 7.8927L42.8974 7.66477ZM44.4096 2.79804V2.02992H43.8439L43.6761 2.57011L44.4096 2.79804ZM45.5978 2.79804L46.3232 3.05067L46.6787 2.02992H45.5978V2.79804ZM42.9874 10.2932L43.7068 10.5623L43.7099 10.5541L43.7128 10.5458L42.9874 10.2932ZM41.0611 11.9134L40.9955 12.6787L41.0282 12.6815H41.0611V11.9134ZM40.8511 11.8954L40.7088 12.6502L40.7469 12.6574L40.7855 12.6607L40.8511 11.8954ZM40.437 11.8174H39.6689V12.4543L40.2948 12.5722L40.437 11.8174ZM40.437 10.9173L40.4983 10.1516L39.6689 10.0852V10.9173H40.437ZM40.737 10.9413L40.6758 11.7069L40.7064 11.7094H40.737V10.9413ZM41.6132 10.7132L41.1656 10.089L41.16 10.0931L41.6132 10.7132ZM42.1353 9.8791L41.4155 9.61084L41.4112 9.62237L41.4073 9.63404L42.1353 9.8791ZM42.3813 9.219L43.101 9.48727L43.1994 9.22332L43.1038 8.95835L42.3813 9.219ZM40.0649 2.79804V2.02992H38.9713L39.3424 3.05869L40.0649 2.79804ZM41.2771 2.79804L42.0059 2.55541L41.831 2.02992H41.2771V2.79804ZM43.6309 7.8927L45.1431 3.02596L43.6761 2.57011L42.1638 7.43685L43.6309 7.8927ZM44.4096 3.56615H45.5978V2.02992H44.4096V3.56615ZM44.8724 2.5454L42.262 10.0405L43.7128 10.5458L46.3232 3.05067L44.8724 2.5454ZM42.268 10.024C42.0957 10.4846 41.8973 10.7616 41.7083 10.9205C41.5329 11.0681 41.3299 11.1453 41.0611 11.1453V12.6815C41.6724 12.6815 42.2305 12.4887 42.6972 12.0962C43.1503 11.7151 43.475 11.1819 43.7068 10.5623L42.268 10.024ZM41.1267 11.1481L40.9167 11.1301L40.7855 12.6607L40.9955 12.6787L41.1267 11.1481ZM40.9933 11.1406L40.5792 11.0626L40.2948 12.5722L40.7088 12.6502L40.9933 11.1406ZM41.2051 11.8174V10.9173H39.6689V11.8174H41.2051ZM40.3757 11.6829L40.6758 11.7069L40.7983 10.1756L40.4983 10.1516L40.3757 11.6829ZM40.737 11.7094C41.2043 11.7094 41.6788 11.6166 42.0664 11.3334L41.16 10.0931C41.1315 10.1139 41.0219 10.1731 40.737 10.1731V11.7094ZM42.0607 11.3375C42.4633 11.0489 42.7056 10.5925 42.8632 10.1242L41.4073 9.63404C41.2929 9.97388 41.1871 10.0735 41.1656 10.089L42.0607 11.3375ZM42.855 10.1474L43.101 9.48727L41.6615 8.95074L41.4155 9.61084L42.855 10.1474ZM43.1038 8.95835L40.7875 2.53738L39.3424 3.05869L41.6588 9.47966L43.1038 8.95835ZM40.0649 3.56615H41.2771V2.02992H40.0649V3.56615ZM40.5483 3.04067L42.1686 7.9074L43.6262 7.42214L42.0059 2.55541L40.5483 3.04067ZM6.88593 19.2683L6.19782 18.9269L6.19568 18.9313L6.88593 19.2683ZM7.93009 18.0921L7.5272 17.4381L7.52458 17.4397L7.93009 18.0921ZM11.6026 18.5962L11.0285 19.1065L11.0304 19.1086L11.6026 18.5962ZM12.0587 22.8208L11.3674 22.4861L11.3662 22.4884L12.0587 22.8208ZM11.0206 23.991L10.6161 23.338L10.6135 23.3396L11.0206 23.991ZM7.33 23.4929L6.7559 24.0032L6.75777 24.0053L7.33 23.4929ZM8.12812 22.8508L7.517 23.3161L7.51971 23.3197L8.12812 22.8508ZM10.8165 22.8448L11.4297 23.3075L11.4317 23.3048L10.8165 22.8448ZM10.8045 19.2563L10.192 19.7198L10.1967 19.7259L10.8045 19.2563ZM7.28199 20.9845C7.28199 20.4505 7.38547 19.9959 7.57619 19.6052L6.19568 18.9313C5.89033 19.5568 5.74576 20.2463 5.74576 20.9845H7.28199ZM7.57404 19.6096C7.7682 19.2182 8.02305 18.9387 8.33561 18.7444L7.52458 17.4397C6.949 17.7975 6.50775 18.3022 6.19783 18.9269L7.57404 19.6096ZM8.33299 18.7461C8.64943 18.5511 9.01767 18.4461 9.46032 18.4461V16.9099C8.7588 16.9099 8.10689 17.081 7.5272 17.4381L8.33299 18.7461ZM9.46032 18.4461C10.1447 18.4461 10.6428 18.6725 11.0285 19.1065L12.1767 18.0858C11.4743 17.2956 10.5442 16.9099 9.46032 16.9099V18.4461ZM11.0304 19.1086C11.4243 19.5485 11.6567 20.1648 11.6567 21.0385H13.1929C13.1929 19.88 12.8771 18.868 12.1749 18.0838L11.0304 19.1086ZM11.6567 21.0385V21.1165H13.1929V21.0385H11.6567ZM11.6567 21.1165C11.6567 21.6477 11.5547 22.0991 11.3674 22.4861L12.7501 23.1555C13.0508 22.5344 13.1929 21.8496 13.1929 21.1165H11.6567ZM11.3662 22.4884C11.1868 22.8623 10.938 23.1386 10.6161 23.338L11.4251 24.6439C12.0073 24.2833 12.4506 23.7794 12.7512 23.1532L11.3662 22.4884ZM10.6135 23.3396C10.3001 23.5354 9.92813 23.6429 9.47233 23.6429V25.1791C10.1847 25.1791 10.8449 25.0066 11.4277 24.6423L10.6135 23.3396ZM9.47233 23.6429C8.79309 23.6429 8.29331 23.4172 7.90224 22.9805L6.75777 24.0053C7.46286 24.7927 8.3913 25.1791 9.47233 25.1791V23.6429ZM7.9041 22.9826C7.51215 22.5416 7.28199 21.9279 7.28199 21.0625H5.74576C5.74576 22.2135 6.05969 23.22 6.7559 24.0032L7.9041 22.9826ZM7.28199 21.0625V20.9845H5.74576V21.0625H7.28199ZM6.86193 21.1165C6.86193 21.952 7.05521 22.7097 7.51701 23.3161L8.73923 22.3855C8.53694 22.1198 8.39816 21.7213 8.39816 21.1165H6.86193ZM7.51971 23.3197C8.00412 23.9482 8.67885 24.273 9.47233 24.273V22.7368C9.14563 22.7368 8.92423 22.6255 8.73653 22.3819L7.51971 23.3197ZM9.47233 24.273C10.2708 24.273 10.9486 23.9451 11.4297 23.3074L10.2034 22.3821C10.0204 22.6247 9.802 22.7368 9.47233 22.7368V24.273ZM11.4317 23.3048C11.898 22.6812 12.0827 21.8766 12.0827 20.9845H10.5465C10.5465 21.6846 10.3992 22.1203 10.2014 22.3848L11.4317 23.3048ZM12.0827 20.9845C12.0827 20.1506 11.8824 19.3949 11.4123 18.7866L10.1967 19.7259C10.4068 19.9978 10.5465 20.3942 10.5465 20.9845H12.0827ZM11.417 18.7927C10.9348 18.1555 10.2594 17.822 9.46032 17.822V19.3583C9.78143 19.3583 10.0021 19.4689 10.192 19.7198L11.417 18.7927ZM9.46032 17.822C8.67275 17.822 8.00642 18.1516 7.52571 18.7754L8.74253 19.7131C8.93393 19.4648 9.15173 19.3583 9.46032 19.3583V17.822ZM7.52571 18.7754C7.04715 19.3964 6.86193 20.2121 6.86193 21.1165H8.39816C8.39816 20.3967 8.54899 19.9643 8.74253 19.7131L7.52571 18.7754ZM14.8671 17.798L15.6345 17.7642L15.6021 17.0299H14.8671V17.798ZM14.9031 18.6142L14.1358 18.648L14.2263 20.7001L15.5044 19.0921L14.9031 18.6142ZM18.9238 20.0004H19.6919L19.6918 19.9944L18.9238 20.0004ZM18.9238 24.291V25.0591H19.6919V24.291H18.9238ZM17.8136 24.291H17.0455V25.0591H17.8136V24.291ZM17.8136 19.9944H18.5817L18.5817 19.9878L17.8136 19.9944ZM17.4895 18.9562L16.9266 19.4789L16.9317 19.4842L17.4895 18.9562ZM14.9271 19.6643L14.2366 19.3279L14.159 19.4872V19.6643H14.9271ZM14.9271 24.291V25.0591H15.6953V24.291H14.9271ZM13.817 24.291H13.0489V25.0591H13.817V24.291ZM13.817 17.798V17.0299H13.0489V17.798H13.817ZM14.0998 17.8319L14.1358 18.648L15.6705 18.5803L15.6345 17.7642L14.0998 17.8319ZM15.5044 19.0921C15.8542 18.6521 16.2805 18.4461 16.8474 18.4461V16.9099C15.8141 16.9099 14.9443 17.328 14.3018 18.1362L15.5044 19.0921ZM16.8474 18.4461C17.3891 18.4461 17.6658 18.5946 17.823 18.7706C17.9958 18.9638 18.1504 19.3298 18.1557 20.0063L19.6918 19.9944C19.6851 19.1227 19.4877 18.3276 18.9683 17.7466C18.4335 17.1485 17.678 16.9099 16.8474 16.9099V18.4461ZM18.1556 20.0004V24.291H19.6919V20.0004H18.1556ZM18.9238 23.5229H17.8136V25.0591H18.9238V23.5229ZM18.5817 24.291V19.9944H17.0455V24.291H18.5817ZM18.5817 19.9878C18.5768 19.4234 18.4476 18.851 18.0474 18.4282L16.9317 19.4842C16.9555 19.5094 17.0423 19.6292 17.0455 20.0009L18.5817 19.9878ZM18.0524 18.4335C17.6437 17.9934 17.0712 17.852 16.5114 17.852V19.3883C16.8397 19.3883 16.9193 19.471 16.9267 19.4789L18.0524 18.4335ZM16.5114 17.852C16.0063 17.852 15.5326 17.9896 15.1203 18.2807L16.0062 19.5357C16.138 19.4427 16.2964 19.3883 16.5114 19.3883V17.852ZM15.1203 18.2807C14.738 18.5506 14.4428 18.9046 14.2366 19.3279L15.6177 20.0007C15.7155 19.7999 15.8445 19.6499 16.0062 19.5357L15.1203 18.2807ZM14.159 19.6643V24.291H15.6953V19.6643H14.159ZM14.9271 23.5229H13.817V25.0591H14.9271V23.5229ZM14.5851 24.291V17.798H13.0489V24.291H14.5851ZM13.817 18.5662H14.8671V17.0299H13.817V18.5662ZM21.8042 24.291V25.0591H22.5723V24.291H21.8042ZM20.694 24.291H19.9259V25.0591H20.694V24.291ZM20.694 15.0736V14.3055H19.9259V15.0736H20.694ZM21.8042 15.0736H22.5723V14.3055H21.8042V15.0736ZM21.8042 23.5229H20.694V25.0591H21.8042V23.5229ZM21.4621 24.291V15.0736H19.9259V24.291H21.4621ZM20.694 15.8417H21.8042V14.3055H20.694V15.8417ZM21.0361 15.0736V24.291H22.5723V15.0736H21.0361ZM24.7926 24.291V25.0591H25.5608V24.291H24.7926ZM23.6825 24.291H22.9144V25.0591H23.6825V24.291ZM23.6825 17.798V17.0299H22.9144V17.798H23.6825ZM24.7926 17.798H25.5608V17.0299H24.7926V17.798ZM23.7545 15.6197L23.1844 15.1048L23.1753 15.1152L23.7545 15.6197ZM23.7545 16.5258L23.1835 17.0398L23.1929 17.0499L23.7545 16.5258ZM24.7926 23.5229H23.6825V25.0591H24.7926V23.5229ZM24.4506 24.291V17.798H22.9144V24.291H24.4506ZM23.6825 18.5662H24.7926V17.0299H23.6825V18.5662ZM24.0245 17.798V24.291H25.5608V17.798H24.0245ZM24.3606 16.0758C24.3606 16.0633 24.3623 16.0683 24.3568 16.0839C24.3541 16.0912 24.3505 16.0991 24.346 16.1068C24.3415 16.1145 24.3371 16.1203 24.3337 16.1242L23.1753 15.1152C22.9336 15.3927 22.8243 15.7292 22.8243 16.0758H24.3606ZM24.3245 16.1346C24.3109 16.1496 24.2949 16.1636 24.2775 16.1753C24.2602 16.1869 24.2447 16.1943 24.2331 16.1987C24.2108 16.2071 24.2105 16.2018 24.2466 16.2018V14.6656C23.8808 14.6656 23.4819 14.7755 23.1845 15.1049L24.3245 16.1346ZM24.2466 16.2018C24.2826 16.2018 24.2823 16.2071 24.26 16.1987C24.2484 16.1943 24.2329 16.1869 24.2156 16.1753C24.1982 16.1636 24.1822 16.1496 24.1686 16.1346L25.3086 15.1049C25.0112 14.7755 24.6124 14.6656 24.2466 14.6656V16.2018ZM24.1686 16.1346C24.1655 16.1311 24.1609 16.1253 24.156 16.1174C24.1511 16.1093 24.147 16.1007 24.1439 16.0923C24.1373 16.0743 24.1385 16.0663 24.1385 16.0758H25.6748C25.6748 15.7215 25.5585 15.3815 25.3086 15.1049L24.1686 16.1346ZM24.1385 16.0758C24.1385 16.0854 24.1372 16.0756 24.145 16.0547C24.1533 16.0325 24.1659 16.0137 24.1771 16.0017L25.3002 17.0499C25.5583 16.7734 25.6748 16.4299 25.6748 16.0758H24.1385ZM24.1771 16.0017C24.1916 15.9862 24.208 15.9725 24.2253 15.9612C24.2424 15.9501 24.2573 15.9433 24.2677 15.9395C24.2876 15.9322 24.2851 15.9378 24.2466 15.9378V17.474C24.6049 17.474 25.0009 17.3706 25.3002 17.0499L24.1771 16.0017ZM24.2466 15.9378C24.208 15.9378 24.2055 15.9322 24.2254 15.9395C24.2358 15.9433 24.2507 15.9501 24.2678 15.9612C24.2851 15.9725 24.3015 15.9862 24.316 16.0017L23.1929 17.0499C23.4922 17.3706 23.8882 17.474 24.2466 17.474V15.9378ZM24.3254 16.012C24.3371 16.025 24.3486 16.0434 24.3557 16.0631C24.3623 16.0816 24.3606 16.0884 24.3606 16.0758H22.8243C22.8243 16.4221 22.9337 16.7621 23.1835 17.0397L24.3254 16.012ZM27.6251 17.798L28.3924 17.7642L28.36 17.0299H27.6251V17.798ZM27.6611 18.6142L26.8937 18.648L26.9842 20.7001L28.2624 19.0921L27.6611 18.6142ZM31.6817 20.0004H32.4498L32.4498 19.9944L31.6817 20.0004ZM31.6817 24.291V25.0591H32.4498V24.291H31.6817ZM30.5715 24.291H29.8034V25.0591H30.5715V24.291ZM30.5715 19.9944H31.3397L31.3396 19.9878L30.5715 19.9944ZM30.2475 18.9562L29.6846 19.4789L29.6896 19.4842L30.2475 18.9562ZM27.6851 19.6643L26.9945 19.3279L26.917 19.4872V19.6643H27.6851ZM27.6851 24.291V25.0591H28.4532V24.291H27.6851ZM26.5749 24.291H25.8068V25.0591H26.5749V24.291ZM26.5749 17.798V17.0299H25.8068V17.798H26.5749ZM26.8577 17.8319L26.8937 18.648L28.4284 18.5803L28.3924 17.7642L26.8577 17.8319ZM28.2624 19.0921C28.6121 18.6521 29.0384 18.4461 29.6054 18.4461V16.9099C28.5721 16.9099 27.7022 17.328 27.0598 18.1362L28.2624 19.0921ZM29.6054 18.4461C30.147 18.4461 30.4237 18.5946 30.581 18.7706C30.7537 18.9638 30.9083 19.3298 30.9136 20.0063L32.4498 19.9944C32.443 19.1227 32.2456 18.3276 31.7262 17.7466C31.1914 17.1485 30.4359 16.9099 29.6054 16.9099V18.4461ZM30.9136 20.0004V24.291H32.4498V20.0004H30.9136ZM31.6817 23.5229H30.5715V25.0591H31.6817V23.5229ZM31.3396 24.291V19.9944H29.8034V24.291H31.3396ZM31.3396 19.9878C31.3348 19.4234 31.2055 18.851 30.8053 18.4282L29.6896 19.4842C29.7135 19.5094 29.8002 19.6292 29.8034 20.0009L31.3396 19.9878ZM30.8103 18.4335C30.4016 17.9934 29.8291 17.852 29.2693 17.852V19.3883C29.5976 19.3883 29.6773 19.471 29.6846 19.4789L30.8103 18.4335ZM29.2693 17.852C28.7642 17.852 28.2905 17.9896 27.8782 18.2807L28.7641 19.5357C28.8959 19.4427 29.0543 19.3883 29.2693 19.3883V17.852ZM27.8782 18.2807C27.4959 18.5506 27.2008 18.9046 26.9945 19.3279L28.3756 20.0007C28.4734 19.7999 28.6024 19.6499 28.7641 19.5357L27.8782 18.2807ZM26.917 19.6643V24.291H28.4532V19.6643H26.917ZM27.6851 23.5229H26.5749V25.0591H27.6851V23.5229ZM27.343 24.291V17.798H25.8068V24.291H27.343ZM26.5749 18.5662H27.6251V17.0299H26.5749V18.5662ZM33.902 23.5469L33.3456 24.0765L33.3474 24.0784L33.902 23.5469ZM33.4399 19.2983L32.7497 18.9613L32.7486 18.9636L33.4399 19.2983ZM34.4721 18.1101L34.8886 18.7554L34.8901 18.7545L34.4721 18.1101ZM37.8806 18.5121L37.293 19.0068L37.8806 18.5121ZM38.5827 21.3626V22.1307H39.3508V21.3626H38.5827ZM34.1841 21.3626V20.5945H33.3965L33.4162 21.3818L34.1841 21.3626ZM34.7421 22.9168L34.1709 23.4304L34.1764 23.4364L34.7421 22.9168ZM37.8206 22.6288L38.2925 22.0227L37.6842 21.549L37.2128 22.1591L37.8206 22.6288ZM38.4987 23.1568L39.1425 23.5758L39.5274 22.9844L38.9707 22.5508L38.4987 23.1568ZM34.7841 19.0822L35.3443 19.6078L35.3475 19.6044L34.7841 19.0822ZM34.2201 20.4504L33.4576 20.3571L33.3521 21.2186H34.2201V20.4504ZM37.4725 20.4504V21.2186H38.2407V20.4504H37.4725ZM37.4725 20.3664H38.2407V20.3447L38.2394 20.3229L37.4725 20.3664ZM37.0165 19.0582L36.4375 19.563L36.4407 19.5667L37.0165 19.0582ZM36.0503 23.6429C35.3557 23.6429 34.8481 23.424 34.4566 23.0154L33.3474 24.0784C34.0601 24.822 34.9847 25.1791 36.0503 25.1791V23.6429ZM34.4584 23.0174C34.0696 22.6088 33.842 22.0392 33.842 21.2246H32.3058C32.3058 22.3462 32.6302 23.3248 33.3456 24.0764L34.4584 23.0174ZM33.842 21.2246V21.0205H32.3058V21.2246H33.842ZM33.842 21.0205C33.842 20.475 33.9449 20.0181 34.1313 19.633L32.7486 18.9636C32.447 19.5866 32.3058 20.2779 32.3058 21.0205H33.842ZM34.1302 19.6352C34.3219 19.2426 34.5755 18.9575 34.8886 18.7554L34.0555 17.4647C33.4885 17.8307 33.0541 18.3378 32.7497 18.9613L34.1302 19.6352ZM34.8901 18.7545C35.2131 18.545 35.5486 18.4461 35.9123 18.4461V16.9099C35.2439 16.9099 34.6192 17.0991 34.0541 17.4657L34.8901 18.7545ZM35.9123 18.4461C36.5705 18.4461 36.9951 18.653 37.293 19.0068L38.4683 18.0175C37.8299 17.2591 36.9424 16.9099 35.9123 16.9099V18.4461ZM37.293 19.0068C37.6036 19.3758 37.8146 19.9696 37.8146 20.9005H39.3508C39.3508 19.7591 39.0938 18.7607 38.4683 18.0175L37.293 19.0068ZM37.8146 20.9005V21.3626H39.3508V20.9005H37.8146ZM38.5827 20.5945H34.1841V22.1307H38.5827V20.5945ZM33.4162 21.3818C33.4358 22.1661 33.6689 22.8719 34.1709 23.4303L35.3134 22.4033C35.1032 22.1696 34.9643 21.8392 34.9519 21.3434L33.4162 21.3818ZM34.1764 23.4364C34.6879 23.9934 35.3522 24.273 36.1103 24.273V22.7368C35.7643 22.7368 35.5165 22.6244 35.3079 22.3973L34.1764 23.4364ZM36.1103 24.273C36.6065 24.273 37.0804 24.1714 37.4959 23.9269L36.717 22.6028C36.5885 22.6784 36.3983 22.7368 36.1103 22.7368V24.273ZM37.4959 23.9269C37.8571 23.7145 38.168 23.4354 38.4284 23.0984L37.2128 22.1591C37.0652 22.3502 36.8999 22.4952 36.717 22.6028L37.4959 23.9269ZM37.3487 23.2348L38.0268 23.7629L38.9707 22.5508L38.2925 22.0227L37.3487 23.2348ZM37.8549 22.7379C37.4672 23.3337 36.9067 23.6429 36.0503 23.6429V25.1791C37.3703 25.1791 38.4421 24.6522 39.1425 23.5758L37.8549 22.7379ZM35.9123 17.822C35.2508 17.822 34.6705 18.0749 34.2208 18.5601L35.3475 19.6044C35.5059 19.4335 35.6777 19.3583 35.9123 19.3583V17.822ZM34.224 18.5567C33.7764 19.0337 33.5429 19.6605 33.4576 20.3571L34.9825 20.5438C35.0412 20.0642 35.1838 19.7789 35.3443 19.6078L34.224 18.5567ZM34.2201 21.2186H37.4725V19.6823H34.2201V21.2186ZM38.2407 20.4504V20.3664H36.7044V20.4504H38.2407ZM38.2394 20.3229C38.2013 19.6505 38.0144 19.0278 37.5922 18.5498L36.4407 19.5667C36.5627 19.7047 36.6798 19.9542 36.7057 20.4099L38.2394 20.3229ZM37.5955 18.5535C37.1589 18.0527 36.5683 17.822 35.9123 17.822V19.3583C36.1844 19.3583 36.33 19.4396 36.4375 19.563L37.5955 18.5535Z" fill="white"/>
</svg>
